<svg width="947" height="244" viewBox="0 0 947 244" fill="none" xmlns="http://www.w3.org/2000/svg">
<path d="M101.14 82.88C89.09 56 49.06 53.4 24.42 69.33C-0.970015 85.75 -3.73002 115.33 3.39998 142.38C4.61998 147 8.61998 153.39 7.93998 158.12C15.03 109.73 67.74 106.78 65.15 165.29C62.2 231.45 99.33 242.43 100.28 242.7C77.93 184.24 122.43 130.4 101.13 82.87L101.14 82.88Z" fill="white"/>
<path d="M219.11 157.05C221.74 146.31 221.29 138.98 219.78 134.04C217.39 126.31 212.36 124.44 212.36 124.44C216.04 125.82 191.52 165.89 196.78 169.4C199.34 171.11 204.15 169.75 207.75 168.31C206.93 170.06 206.03 171.78 205.07 173.48C202.25 178.47 199.33 183.7 195.73 188.17C192.23 192.51 187.96 195.97 182.24 196.25C176.61 196.53 170.94 194.38 166.45 191.07C157.76 184.68 151.03 174.52 147.92 164.29C147.84 164.01 147.75 163.72 147.67 163.43C166.33 175.45 191.3 173.74 176.1 158.81C170.88 153.68 163.94 150.34 158.29 145.58C152.49 140.7 146.26 131.82 150.79 124.11C153.57 119.38 159.46 117.92 164.61 118.03C175.22 118.27 186.1 115.73 194.15 108.33C201.28 101.77 205.77 92.52 206.39 82.84C206.44 82.05 206.47 81.26 206.47 80.47C206.47 76.12 205.71 71.67 204.07 67.26L191.15 32.41C208.82 25.51 204.43 0.0100098 204.43 0.0100098C179.7 0.99001 170.83 12.94 168.25 17.68C155.32 19.03 134.97 23.43 118.33 37.39C93.76 58.01 133.38 78.22 139.72 81.24C139.66 81.03 139.61 80.85 139.55 80.66L140.53 81.62C140.46 81.58 140.17 81.47 139.72 81.24C142.74 92.13 140.51 108.31 124.74 131.94C85.18 191.3 110.2 242.72 110.2 242.72H164.89L154.59 230.48C191.25 230.48 185.11 242.72 185.11 242.72H223.06L212.76 229.21C246.85 186.77 219.1 157.05 219.1 157.05H219.11ZM157.13 37.66C160.31 37.66 162.88 40.24 162.88 43.42C162.88 46.6 160.31 49.17 157.13 49.17C153.95 49.17 151.38 46.59 151.38 43.42C151.38 40.25 153.95 37.66 157.13 37.66Z" fill="white"/>
<path d="M275.33 188.39C266.39 181.77 261.58 172.3 260.9 159.96H296.37C296.71 164.15 297.95 167.2 300.1 169.12C302.25 171.05 305.02 172 308.42 172C311.47 172 313.99 171.24 315.97 169.71C317.95 168.18 318.94 166.06 318.94 163.35C318.94 159.84 317.3 157.13 314.02 155.2C310.74 153.28 305.42 151.13 298.07 148.75C290.26 146.15 283.96 143.63 279.15 141.2C274.34 138.77 270.16 135.21 266.59 130.51C263.03 125.82 261.24 119.68 261.24 112.1C261.24 104.52 263.16 97.82 267.01 92.33C270.86 86.84 276.17 82.69 282.96 79.86C289.75 77.03 297.44 75.62 306.04 75.62C319.96 75.62 331.07 78.87 339.39 85.38C347.71 91.89 352.15 101.02 352.71 112.79H316.56C316.45 109.17 315.34 106.45 313.25 104.64C311.16 102.83 308.47 101.92 305.19 101.92C302.7 101.92 300.66 102.66 299.08 104.13C297.49 105.6 296.7 107.69 296.7 110.41C296.7 112.67 297.58 114.63 299.33 116.27C301.08 117.91 303.26 119.32 305.86 120.51C308.46 121.7 312.31 123.2 317.4 125.01C324.98 127.61 331.23 130.19 336.15 132.73C341.07 135.28 345.31 138.84 348.88 143.42C352.45 148 354.23 153.8 354.23 160.82C354.23 167.84 352.45 174.34 348.88 180C345.32 185.66 340.17 190.13 333.44 193.41C326.71 196.69 318.76 198.33 309.6 198.33C295.68 198.33 284.25 195.02 275.32 188.4L275.33 188.39Z" fill="white"/>
<path d="M370.11 124.75C374.01 117.34 379.22 111.54 385.72 107.35C392.22 103.17 399.32 101.07 407.02 101.07C418.11 101.07 426.71 104.58 432.82 111.59V101.92H466.08V242.61H432.82V185.93C425.8 194.19 417.15 198.32 406.85 198.32C399.15 198.32 392.06 196.28 385.55 192.21C379.04 188.14 373.87 182.42 370.02 175.07C366.17 167.72 364.25 159.35 364.25 149.95C364.25 140.55 366.2 132.16 370.11 124.75ZM427.47 134.93C423.91 131.59 419.92 129.92 415.51 129.92C411.1 129.92 407.11 131.65 403.55 135.1C399.99 138.55 398.2 143.5 398.2 149.95C398.2 156.4 399.95 161.24 403.46 164.46C406.97 167.69 410.98 169.3 415.51 169.3C420.04 169.3 423.91 167.6 427.47 164.21C431.03 160.81 432.82 155.89 432.82 149.44C432.82 142.99 431.04 138.27 427.47 134.93Z" fill="white"/>
<path d="M582.51 101.92V197.13H549.08V183.55C546.25 187.85 542.35 191.33 537.37 193.99C532.39 196.65 526.68 197.98 520.23 197.98C509.14 197.98 500.4 194.33 494.01 187.03C487.62 179.73 484.42 169.8 484.42 157.25V101.92H517.51V153C517.51 158.43 518.95 162.7 521.84 165.82C524.73 168.94 528.54 170.49 533.3 170.49C538.06 170.49 542.01 168.94 544.84 165.82C547.67 162.7 549.08 158.44 549.08 153V101.92H582.51Z" fill="white"/>
<path d="M604.14 88.26C600.58 85.04 598.79 80.99 598.79 76.13C598.79 71.27 600.57 67.02 604.14 63.74C607.71 60.46 612.43 58.82 618.31 58.82C624.19 58.82 628.75 60.46 632.31 63.74C635.87 67.02 637.65 71.15 637.65 76.13C637.65 81.11 635.87 85.04 632.31 88.26C628.74 91.49 624.08 93.1 618.31 93.1C612.54 93.1 607.7 91.49 604.14 88.26ZM634.77 101.92V197.13H601.51V101.92H634.77Z" fill="white"/>
<path d="M700.62 105.82C705.94 102.65 711.65 101.07 717.76 101.07V136.54H708.43C701.19 136.54 695.81 137.96 692.31 140.78C688.8 143.61 687.05 148.53 687.05 155.54V197.12H653.79V101.91H687.05V118.71C690.78 113.28 695.31 108.98 700.63 105.81L700.62 105.82Z" fill="white"/>
<path d="M776.48 105.82C781.8 102.65 787.51 101.07 793.62 101.07V136.54H784.29C777.05 136.54 771.67 137.96 768.17 140.78C764.66 143.61 762.91 148.53 762.91 155.54V197.12H729.65V101.91H762.91V118.71C766.64 113.28 771.17 108.98 776.49 105.81L776.48 105.82Z" fill="white"/>
<path d="M895.95 156.23H832.99C833.33 161.44 834.77 165.31 837.32 167.86C839.87 170.41 843.12 171.68 847.08 171.68C852.62 171.68 856.58 169.19 858.96 164.21H894.43C892.96 170.77 890.11 176.63 885.86 181.78C881.61 186.93 876.27 190.97 869.82 193.91C863.37 196.85 856.24 198.32 848.44 198.32C839.05 198.32 830.7 196.34 823.41 192.38C816.11 188.42 810.4 182.76 806.27 175.41C802.14 168.06 800.08 159.4 800.08 149.44C800.08 139.48 802.12 130.86 806.19 123.56C810.26 116.26 815.95 110.64 823.25 106.68C830.55 102.72 838.95 100.74 848.45 100.74C857.95 100.74 866.15 102.66 873.39 106.51C880.63 110.36 886.29 115.87 890.36 123.06C894.43 130.25 896.47 138.7 896.47 148.43C896.47 151.03 896.3 153.63 895.96 156.24L895.95 156.23ZM862.52 140.11C862.52 136.04 861.16 132.84 858.45 130.52C855.74 128.2 852.34 127.04 848.27 127.04C844.2 127.04 840.86 128.14 838.25 130.35C835.65 132.56 833.95 135.81 833.16 140.11H862.52Z" fill="white"/>
<path d="M943.3 71.54V197.12H910.04V71.54H943.3Z" fill="white"/>
<path d="M406.53 49.4C408.75 48.21 411.38 47.61 414.4 47.61C417.95 47.61 421.16 48.54 424.05 50.39C426.94 52.24 429.21 54.89 430.88 58.34C432.55 61.78 433.38 65.81 433.38 70.42C433.38 75.03 432.55 79.07 430.88 82.54C429.21 86.01 426.93 88.67 424.05 90.52C421.16 92.37 417.94 93.3 414.4 93.3C411.38 93.3 408.76 92.7 406.53 91.51C404.31 90.32 402.58 88.66 401.37 86.54V92.74H385.8V33.95H401.37V54.37C402.59 52.25 404.31 50.6 406.53 49.4ZM415.23 63.62C413.67 62.01 411.75 61.2 409.47 61.2C407.19 61.2 405.27 62.02 403.71 63.66C402.15 65.3 401.37 67.55 401.37 70.41C401.37 73.27 402.15 75.6 403.71 77.24C405.27 78.88 407.19 79.7 409.47 79.7C411.75 79.7 413.67 78.87 415.23 77.2C416.79 75.53 417.57 73.27 417.57 70.41C417.57 67.55 416.79 65.23 415.23 63.62Z" fill="white"/>
<path d="M480.58 73.59H451.1C451.26 76.03 451.93 77.84 453.13 79.03C454.33 80.22 455.84 80.82 457.7 80.82C460.29 80.82 462.15 79.66 463.26 77.32H479.86C479.17 80.39 477.83 83.13 475.85 85.54C473.86 87.95 471.36 89.84 468.34 91.22C465.32 92.6 461.98 93.29 458.33 93.29C453.93 93.29 450.03 92.36 446.61 90.51C443.19 88.66 440.52 86.01 438.59 82.57C436.66 79.13 435.69 75.08 435.69 70.41C435.69 65.74 436.64 61.71 438.55 58.29C440.46 54.87 443.12 52.24 446.53 50.38C449.95 48.53 453.88 47.6 458.33 47.6C462.78 47.6 466.62 48.5 470.01 50.3C473.4 52.1 476.05 54.68 477.96 58.05C479.87 61.42 480.82 65.37 480.82 69.93C480.82 71.15 480.74 72.37 480.58 73.58V73.59ZM464.93 66.04C464.93 64.13 464.29 62.64 463.02 61.55C461.75 60.46 460.16 59.92 458.25 59.92C456.34 59.92 454.78 60.44 453.56 61.47C452.34 62.5 451.55 64.03 451.18 66.04H464.92H464.93Z" fill="white"/>
<path d="M511.88 79.47V92.74H505.13C493.74 92.74 488.05 87.1 488.05 75.82V61.12H482.57V48.17H488.05V37.37H503.7V48.17H511.8V61.12H503.7V76.06C503.7 77.28 503.98 78.15 504.53 78.68C505.09 79.21 506.03 79.47 507.35 79.47H511.88Z" fill="white"/>
<path d="M517.4 58.34C519.07 54.9 521.35 52.25 524.23 50.39C527.12 48.54 530.33 47.61 533.88 47.61C536.95 47.61 539.6 48.22 541.83 49.44C544.06 50.66 545.78 52.3 547 54.37V48.17H562.57V92.74H547V86.54C545.78 88.61 544.05 90.25 541.8 91.47C539.55 92.69 536.91 93.3 533.89 93.3C530.34 93.3 527.12 92.37 524.24 90.52C521.35 88.67 519.08 86.01 517.41 82.54C515.74 79.07 514.91 75.03 514.91 70.42C514.91 65.81 515.74 61.79 517.41 58.34H517.4ZM544.65 63.66C543.09 62.02 541.17 61.2 538.89 61.2C536.61 61.2 534.63 62.01 533.09 63.62C531.55 65.24 530.79 67.5 530.79 70.41C530.79 73.32 531.56 75.53 533.09 77.2C534.63 78.87 536.56 79.7 538.89 79.7C541.22 79.7 543.09 78.88 544.65 77.24C546.21 75.6 546.99 73.32 546.99 70.41C546.99 67.5 546.21 65.3 544.65 63.66Z" fill="white"/>
<path d="M494.72 216.5L488.4 228.58V235.9H485.87V228.58L479.52 216.5H482.33L487.12 226.32L491.91 216.5H494.72Z" fill="white"/>
<path d="M499.6 235.18C498.44 234.53 497.53 233.61 496.87 232.41C496.21 231.21 495.88 229.83 495.88 228.25C495.88 226.67 496.22 225.31 496.89 224.12C497.57 222.92 498.49 222 499.66 221.36C500.83 220.72 502.14 220.4 503.58 220.4C505.02 220.4 506.34 220.72 507.5 221.36C508.67 222 509.59 222.91 510.27 224.1C510.95 225.29 511.29 226.67 511.29 228.25C511.29 229.83 510.94 231.22 510.25 232.41C509.56 233.61 508.61 234.53 507.43 235.18C506.24 235.83 504.92 236.16 503.48 236.16C502.04 236.16 500.76 235.84 499.6 235.18ZM506.04 233.29C506.84 232.86 507.48 232.22 507.97 231.37C508.46 230.52 508.71 229.48 508.71 228.25C508.71 227.02 508.47 225.99 507.99 225.13C507.51 224.27 506.88 223.64 506.1 223.22C505.32 222.8 504.48 222.59 503.57 222.59C502.66 222.59 501.79 222.8 501.02 223.22C500.25 223.64 499.63 224.27 499.17 225.13C498.71 225.98 498.48 227.02 498.48 228.25C498.48 229.48 498.71 230.54 499.16 231.4C499.61 232.26 500.22 232.89 500.98 233.3C501.74 233.72 502.57 233.93 503.49 233.93C504.41 233.93 505.25 233.72 506.05 233.29H506.04Z" fill="white"/>
<path d="M527.61 220.65V235.9H525.08V233.65C524.6 234.43 523.93 235.04 523.06 235.47C522.2 235.91 521.25 236.13 520.21 236.13C519.02 236.13 517.96 235.88 517.01 235.39C516.06 234.9 515.32 234.16 514.77 233.18C514.22 232.2 513.95 231 513.95 229.59V220.66H516.46V229.26C516.46 230.76 516.84 231.92 517.6 232.72C518.36 233.53 519.4 233.93 520.72 233.93C522.04 233.93 523.14 233.51 523.92 232.68C524.7 231.85 525.09 230.63 525.09 229.03V220.65H527.62H527.61Z" fill="white"/>
<path d="M535.78 221.1C536.61 220.62 537.61 220.38 538.8 220.38V223H538.13C535.29 223 533.87 224.54 533.87 227.62V235.92H531.34V220.67H533.87V223.15C534.32 222.28 534.95 221.6 535.78 221.12V221.1Z" fill="white"/>
<path d="M559.58 217.69C561.13 218.48 562.32 219.6 563.14 221.07C563.97 222.54 564.38 224.26 564.38 226.25C564.38 228.24 563.97 229.96 563.14 231.41C562.31 232.87 561.13 233.98 559.58 234.75C558.03 235.52 556.2 235.9 554.08 235.9H548.04V216.5H554.08C556.2 216.5 558.03 216.9 559.58 217.68V217.69ZM559.82 231.83C561.14 230.5 561.8 228.64 561.8 226.25C561.8 223.86 561.14 221.96 559.81 220.6C558.48 219.25 556.58 218.57 554.09 218.57H550.58V233.82H554.09C556.6 233.82 558.51 233.16 559.82 231.83Z" fill="white"/>
<path d="M567.25 217.67C566.92 217.34 566.75 216.93 566.75 216.45C566.75 215.97 566.92 215.56 567.25 215.23C567.58 214.89 567.99 214.73 568.47 214.73C568.95 214.73 569.33 214.9 569.65 215.23C569.97 215.56 570.14 215.97 570.14 216.45C570.14 216.93 569.98 217.34 569.65 217.67C569.33 218.01 568.93 218.17 568.47 218.17C568.01 218.17 567.58 218 567.25 217.67ZM569.7 220.65V235.9H567.17V220.65H569.7Z" fill="white"/>
<path d="M583.21 221.26C584.2 221.84 584.94 222.56 585.42 223.43V220.65H587.98V236.24C587.98 237.63 587.68 238.87 587.09 239.96C586.5 241.05 585.65 241.89 584.54 242.51C583.44 243.12 582.15 243.43 580.68 243.43C578.68 243.43 577.01 242.96 575.67 242.01C574.33 241.06 573.54 239.77 573.3 238.14H575.81C576.09 239.07 576.66 239.81 577.54 240.38C578.41 240.95 579.46 241.23 580.68 241.23C582.07 241.23 583.21 240.79 584.09 239.92C584.97 239.05 585.41 237.82 585.41 236.25V233.05C584.91 233.94 584.17 234.68 583.18 235.28C582.2 235.88 581.05 236.17 579.73 236.17C578.41 236.17 577.15 235.83 576.04 235.17C574.93 234.51 574.07 233.56 573.44 232.36C572.81 231.16 572.49 229.78 572.49 228.24C572.49 226.7 572.81 225.31 573.44 224.14C574.07 222.96 574.94 222.05 576.04 221.4C577.14 220.75 578.37 220.42 579.73 220.42C581.09 220.42 582.2 220.71 583.2 221.28L583.21 221.26ZM584.73 225.24C584.27 224.39 583.64 223.73 582.85 223.28C582.06 222.82 581.19 222.6 580.25 222.6C579.31 222.6 578.44 222.82 577.66 223.27C576.88 223.72 576.26 224.37 575.79 225.22C575.33 226.08 575.1 227.08 575.1 228.23C575.1 229.38 575.33 230.42 575.79 231.28C576.25 232.14 576.88 232.8 577.66 233.26C578.44 233.72 579.3 233.94 580.25 233.94C581.2 233.94 582.06 233.71 582.85 233.26C583.64 232.81 584.26 232.15 584.73 231.28C585.19 230.42 585.43 229.41 585.43 228.26C585.43 227.11 585.2 226.11 584.73 225.26V225.24Z" fill="white"/>
<path d="M591.8 217.67C591.47 217.34 591.3 216.93 591.3 216.45C591.3 215.97 591.47 215.56 591.8 215.23C592.13 214.89 592.54 214.73 593.02 214.73C593.5 214.73 593.88 214.9 594.2 215.23C594.52 215.56 594.69 215.97 594.69 216.45C594.69 216.93 594.53 217.34 594.2 217.67C593.88 218.01 593.48 218.17 593.02 218.17C592.56 218.17 592.13 218 591.8 217.67ZM594.25 220.65V235.9H591.72V220.65H594.25Z" fill="white"/>
<path d="M601.09 222.74V231.73C601.09 232.47 601.25 233 601.56 233.3C601.88 233.61 602.42 233.76 603.2 233.76H605.07V235.9H602.79C601.38 235.9 600.32 235.58 599.62 234.92C598.92 234.27 598.56 233.2 598.56 231.72V222.73H596.58V220.64H598.56V216.8H601.09V220.64H605.07V222.73H601.09V222.74Z" fill="white"/>
<path d="M607.58 224.12C608.21 222.94 609.08 222.03 610.18 221.38C611.28 220.73 612.51 220.4 613.87 220.4C615.23 220.4 616.37 220.69 617.35 221.26C618.33 221.84 619.07 222.56 619.55 223.43V220.65H622.11V235.9H619.55V233.06C619.05 233.95 618.3 234.69 617.31 235.27C616.32 235.85 615.16 236.15 613.84 236.15C612.52 236.15 611.26 235.81 610.17 235.15C609.08 234.49 608.21 233.54 607.58 232.34C606.95 231.14 606.63 229.76 606.63 228.22C606.63 226.68 606.95 225.29 607.58 224.12ZM618.85 225.25C618.39 224.4 617.76 223.74 616.97 223.29C616.18 222.83 615.31 222.61 614.37 222.61C613.43 222.61 612.56 222.83 611.78 223.28C611 223.73 610.38 224.38 609.91 225.23C609.45 226.09 609.22 227.09 609.22 228.24C609.22 229.39 609.45 230.43 609.91 231.29C610.37 232.15 611 232.81 611.78 233.27C612.56 233.73 613.42 233.95 614.37 233.95C615.32 233.95 616.18 233.72 616.97 233.27C617.76 232.82 618.38 232.16 618.85 231.29C619.31 230.43 619.55 229.42 619.55 228.27C619.55 227.12 619.32 226.12 618.85 225.27V225.25Z" fill="white"/>
<path d="M628.37 215.31V235.91H625.84V215.31H628.37Z" fill="white"/>
<path d="M650.94 216.5V218.56H645.65V235.9H643.12V218.56H637.8V216.5H650.94Z" fill="white"/>
<path d="M657.94 221.1C658.77 220.62 659.77 220.38 660.96 220.38V223H660.29C657.45 223 656.03 224.54 656.03 227.62V235.92H653.5V220.67H656.03V223.15C656.48 222.28 657.11 221.6 657.94 221.12V221.1Z" fill="white"/>
<path d="M663.33 224.12C663.96 222.94 664.83 222.03 665.93 221.38C667.03 220.73 668.26 220.4 669.62 220.4C670.98 220.4 672.12 220.69 673.1 221.26C674.08 221.84 674.82 222.56 675.3 223.43V220.65H677.86V235.9H675.3V233.06C674.8 233.95 674.05 234.69 673.06 235.27C672.07 235.85 670.91 236.15 669.59 236.15C668.27 236.15 667.01 235.81 665.92 235.15C664.83 234.49 663.96 233.54 663.33 232.34C662.7 231.14 662.38 229.76 662.38 228.22C662.38 226.68 662.7 225.29 663.33 224.12ZM674.6 225.25C674.14 224.4 673.51 223.74 672.72 223.29C671.93 222.83 671.06 222.61 670.12 222.61C669.18 222.61 668.31 222.83 667.53 223.28C666.75 223.73 666.13 224.38 665.66 225.23C665.2 226.09 664.97 227.09 664.97 228.24C664.97 229.39 665.2 230.43 665.66 231.29C666.12 232.15 666.75 232.81 667.53 233.27C668.31 233.73 669.17 233.95 670.12 233.95C671.07 233.95 671.93 233.72 672.72 233.27C673.51 232.82 674.13 232.16 674.6 231.29C675.06 230.43 675.3 229.42 675.3 228.27C675.3 227.12 675.07 226.12 674.6 225.27V225.25Z" fill="white"/>
<path d="M693.53 222.05C694.68 223.17 695.26 224.79 695.26 226.91V235.9H692.75V227.27C692.75 225.75 692.37 224.58 691.61 223.78C690.85 222.97 689.81 222.57 688.49 222.57C687.17 222.57 686.09 222.99 685.3 223.82C684.51 224.66 684.12 225.87 684.12 227.47V235.9H681.59V220.65H684.12V222.82C684.62 222.04 685.3 221.44 686.17 221.01C687.03 220.58 687.98 220.37 689.02 220.37C690.88 220.37 692.38 220.93 693.53 222.05Z" fill="white"/>
<path d="M701.1 235.56C700.17 235.16 699.44 234.6 698.9 233.89C698.36 233.17 698.06 232.35 698.01 231.43H700.63C700.7 232.19 701.06 232.81 701.7 233.29C702.34 233.77 703.18 234.01 704.22 234.01C705.18 234.01 705.95 233.8 706.5 233.37C707.06 232.94 707.34 232.4 707.34 231.76C707.34 231.12 707.04 230.6 706.45 230.27C705.86 229.94 704.94 229.62 703.69 229.31C702.56 229.01 701.64 228.71 700.92 228.41C700.21 228.1 699.59 227.65 699.08 227.05C698.57 226.45 698.31 225.65 698.31 224.67C698.31 223.89 698.54 223.18 699.01 222.53C699.47 221.88 700.13 221.37 700.99 220.98C701.84 220.6 702.82 220.41 703.91 220.41C705.6 220.41 706.96 220.84 708 221.69C709.04 222.54 709.59 223.71 709.67 225.2H707.14C707.08 224.4 706.76 223.76 706.18 223.28C705.6 222.8 704.81 222.56 703.83 222.56C702.92 222.56 702.2 222.76 701.66 223.14C701.12 223.52 700.85 224.04 700.85 224.67C700.85 225.17 701.01 225.59 701.34 225.91C701.67 226.23 702.07 226.49 702.56 226.69C703.05 226.88 703.73 227.1 704.61 227.34C705.7 227.64 706.6 227.93 707.28 228.22C707.96 228.51 708.56 228.94 709.05 229.52C709.54 230.1 709.8 230.85 709.82 231.77C709.82 232.61 709.59 233.36 709.13 234.02C708.67 234.69 708.01 235.21 707.17 235.59C706.33 235.97 705.36 236.16 704.26 236.16C703.09 236.16 702.04 235.96 701.12 235.56H701.1Z" fill="white"/>
<path d="M719.02 222.74H715.82V235.9H713.29V222.74H711.31V220.65H713.29V219.56C713.29 217.85 713.73 216.61 714.61 215.82C715.49 215.03 716.91 214.64 718.86 214.64V216.75C717.75 216.75 716.96 216.97 716.51 217.41C716.05 217.84 715.83 218.56 715.83 219.57V220.66H719.03V222.75L719.02 222.74Z" fill="white"/>
<path d="M724.18 235.18C723.02 234.53 722.11 233.61 721.45 232.41C720.79 231.21 720.46 229.83 720.46 228.25C720.46 226.67 720.8 225.31 721.48 224.12C722.16 222.92 723.08 222 724.25 221.36C725.42 220.72 726.73 220.4 728.17 220.4C729.61 220.4 730.93 220.72 732.09 221.36C733.26 222 734.18 222.91 734.86 224.1C735.54 225.29 735.87 226.67 735.87 228.25C735.87 229.83 735.52 231.22 734.83 232.41C734.13 233.61 733.19 234.53 732 235.18C730.81 235.83 729.49 236.16 728.05 236.16C726.61 236.16 725.33 235.84 724.17 235.18H724.18ZM730.62 233.29C731.42 232.86 732.06 232.22 732.55 231.37C733.04 230.52 733.29 229.48 733.29 228.25C733.29 227.02 733.05 225.99 732.57 225.13C732.09 224.28 731.46 223.64 730.68 223.22C729.9 222.8 729.06 222.59 728.15 222.59C727.24 222.59 726.37 222.8 725.6 223.22C724.83 223.64 724.21 224.27 723.75 225.13C723.29 225.98 723.05 227.02 723.05 228.25C723.05 229.48 723.28 230.54 723.73 231.4C724.18 232.25 724.79 232.89 725.55 233.3C726.31 233.72 727.15 233.93 728.06 233.93C728.97 233.93 729.82 233.72 730.62 233.29Z" fill="white"/>
<path d="M743.11 221.1C743.94 220.62 744.94 220.38 746.13 220.38V223H745.46C742.62 223 741.2 224.54 741.2 227.62V235.92H738.67V220.67H741.2V223.15C741.65 222.28 742.28 221.6 743.11 221.12V221.1Z" fill="white"/>
<path d="M770.01 221.11C770.94 221.6 771.67 222.34 772.21 223.32C772.75 224.3 773.02 225.5 773.02 226.91V235.9H770.51V227.27C770.51 225.75 770.14 224.58 769.38 223.78C768.63 222.97 767.61 222.57 766.33 222.57C765.05 222.57 763.97 222.99 763.19 223.84C762.41 224.69 762.02 225.9 762.02 227.5V235.91H759.51V227.28C759.51 225.76 759.14 224.59 758.38 223.79C757.62 222.99 756.61 222.58 755.33 222.58C754.05 222.58 752.96 223 752.19 223.85C751.41 224.69 751.02 225.91 751.02 227.51V235.92H748.49V220.67H751.02V222.87C751.52 222.07 752.2 221.46 753.04 221.03C753.88 220.6 754.82 220.39 755.84 220.39C757.12 220.39 758.25 220.68 759.24 221.25C760.22 221.83 760.96 222.67 761.44 223.78C761.87 222.71 762.57 221.87 763.55 221.27C764.53 220.68 765.63 220.38 766.83 220.38C768.03 220.38 769.08 220.63 770 221.12L770.01 221.11Z" fill="white"/>
<path d="M776.61 224.12C777.24 222.94 778.11 222.03 779.21 221.38C780.31 220.73 781.54 220.4 782.9 220.4C784.26 220.4 785.4 220.69 786.38 221.26C787.36 221.84 788.1 222.56 788.58 223.43V220.65H791.14V235.9H788.58V233.06C788.08 233.95 787.33 234.69 786.34 235.27C785.35 235.85 784.19 236.15 782.87 236.15C781.55 236.15 780.29 235.81 779.2 235.15C778.11 234.49 777.24 233.54 776.61 232.34C775.98 231.13 775.66 229.76 775.66 228.22C775.66 226.68 775.98 225.29 776.61 224.12ZM787.88 225.25C787.42 224.4 786.79 223.74 786 223.29C785.21 222.83 784.34 222.61 783.4 222.61C782.46 222.61 781.59 222.83 780.81 223.28C780.03 223.73 779.41 224.38 778.94 225.23C778.48 226.09 778.25 227.09 778.25 228.24C778.25 229.39 778.48 230.43 778.94 231.29C779.4 232.15 780.03 232.81 780.81 233.27C781.59 233.73 782.45 233.95 783.4 233.95C784.35 233.95 785.21 233.72 786 233.27C786.79 232.82 787.41 232.16 787.88 231.29C788.34 230.43 788.58 229.42 788.58 228.27C788.58 227.12 788.35 226.12 787.88 225.27V225.25Z" fill="white"/>
<path d="M797.95 222.74V231.73C797.95 232.47 798.11 233 798.42 233.3C798.74 233.61 799.28 233.76 800.06 233.76H801.93V235.9H799.65C798.24 235.9 797.18 235.58 796.48 234.92C795.78 234.27 795.42 233.2 795.42 231.72V222.73H793.44V220.64H795.42V216.8H797.95V220.64H801.93V222.73H797.95V222.74Z" fill="white"/>
<path d="M804.52 217.67C804.19 217.34 804.02 216.93 804.02 216.45C804.02 215.97 804.19 215.56 804.52 215.23C804.85 214.89 805.26 214.73 805.74 214.73C806.22 214.73 806.6 214.9 806.92 215.23C807.24 215.56 807.41 215.97 807.41 216.45C807.41 216.93 807.25 217.34 806.92 217.67C806.6 218.01 806.2 218.17 805.74 218.17C805.28 218.17 804.85 218 804.52 217.67ZM806.97 220.65V235.9H804.44V220.65H806.97Z" fill="white"/>
<path d="M813.5 235.18C812.34 234.53 811.43 233.61 810.77 232.41C810.11 231.21 809.78 229.83 809.78 228.25C809.78 226.67 810.12 225.31 810.79 224.12C811.47 222.92 812.39 222 813.56 221.36C814.73 220.72 816.04 220.4 817.48 220.4C818.92 220.4 820.24 220.72 821.4 221.36C822.57 222 823.49 222.91 824.17 224.1C824.85 225.29 825.19 226.67 825.19 228.25C825.19 229.83 824.84 231.22 824.15 232.41C823.46 233.61 822.51 234.53 821.33 235.18C820.14 235.83 818.82 236.16 817.38 236.16C815.94 236.16 814.66 235.84 813.5 235.18ZM819.94 233.29C820.74 232.86 821.38 232.22 821.87 231.37C822.36 230.52 822.61 229.48 822.61 228.25C822.61 227.02 822.37 225.99 821.89 225.13C821.41 224.27 820.78 223.64 820 223.22C819.22 222.8 818.38 222.59 817.47 222.59C816.56 222.59 815.69 222.8 814.92 223.22C814.15 223.64 813.53 224.27 813.07 225.13C812.61 225.98 812.38 227.02 812.38 228.25C812.38 229.48 812.61 230.54 813.06 231.4C813.51 232.26 814.12 232.89 814.88 233.3C815.64 233.72 816.47 233.93 817.39 233.93C818.31 233.93 819.15 233.72 819.95 233.29H819.94Z" fill="white"/>
<path d="M839.93 222.05C841.08 223.17 841.66 224.79 841.66 226.91V235.9H839.15V227.27C839.15 225.75 838.77 224.58 838.01 223.78C837.25 222.97 836.21 222.57 834.89 222.57C833.57 222.57 832.49 222.99 831.7 223.82C830.91 224.66 830.52 225.87 830.52 227.47V235.9H827.99V220.65H830.52V222.82C831.02 222.04 831.7 221.44 832.57 221.01C833.43 220.58 834.38 220.37 835.42 220.37C837.27 220.37 838.78 220.93 839.93 222.05Z" fill="white"/>
<path d="M863.43 226.2C862.33 227.27 860.64 227.8 858.38 227.8H854.65V235.9H852.12V216.5H858.38C860.57 216.5 862.24 217.03 863.38 218.09C864.52 219.15 865.09 220.51 865.09 222.18C865.09 223.85 864.54 225.13 863.43 226.2ZM861.5 224.79C862.17 224.18 862.5 223.31 862.5 222.17C862.5 219.78 861.13 218.58 858.38 218.58H854.65V225.7H858.38C859.79 225.7 860.83 225.39 861.5 224.78V224.79Z" fill="white"/>
<path d="M867.68 224.12C868.31 222.94 869.18 222.03 870.28 221.38C871.38 220.73 872.61 220.4 873.97 220.4C875.33 220.4 876.47 220.69 877.45 221.26C878.43 221.84 879.17 222.56 879.65 223.43V220.65H882.21V235.9H879.65V233.06C879.15 233.95 878.4 234.69 877.41 235.27C876.42 235.85 875.26 236.15 873.94 236.15C872.62 236.15 871.36 235.81 870.27 235.15C869.18 234.49 868.31 233.54 867.68 232.34C867.05 231.13 866.73 229.76 866.73 228.22C866.73 226.68 867.05 225.29 867.68 224.12ZM878.95 225.25C878.49 224.4 877.86 223.74 877.07 223.29C876.28 222.83 875.41 222.61 874.47 222.61C873.53 222.61 872.66 222.83 871.88 223.28C871.1 223.73 870.48 224.38 870.01 225.23C869.55 226.09 869.32 227.09 869.32 228.24C869.32 229.39 869.55 230.43 870.01 231.29C870.47 232.15 871.1 232.81 871.88 233.27C872.66 233.73 873.52 233.95 874.47 233.95C875.42 233.95 876.28 233.72 877.07 233.27C877.86 232.82 878.48 232.16 878.95 231.29C879.41 230.43 879.65 229.42 879.65 228.27C879.65 227.12 879.42 226.12 878.95 225.27V225.25Z" fill="white"/>
<path d="M890.38 221.1C891.21 220.62 892.21 220.38 893.4 220.38V223H892.73C889.89 223 888.47 224.54 888.47 227.62V235.92H885.94V220.67H888.47V223.15C888.92 222.28 889.55 221.6 890.38 221.12V221.1Z" fill="white"/>
<path d="M898.85 222.74V231.73C898.85 232.47 899.01 233 899.32 233.3C899.64 233.61 900.18 233.76 900.96 233.76H902.82V235.9H900.54C899.13 235.9 898.07 235.58 897.37 234.92C896.66 234.27 896.31 233.2 896.31 231.72V222.73H894.33V220.64H896.31V216.8H898.84V220.64H902.82V222.73H898.84L898.85 222.74Z" fill="white"/>
<path d="M917.28 222.05C918.43 223.17 919.01 224.79 919.01 226.91V235.9H916.5V227.27C916.5 225.75 916.12 224.58 915.36 223.78C914.6 222.98 913.56 222.57 912.24 222.57C910.92 222.57 909.84 222.99 909.05 223.82C908.26 224.66 907.87 225.87 907.87 227.47V235.9H905.34V220.65H907.87V222.82C908.37 222.04 909.05 221.44 909.92 221.01C910.78 220.58 911.73 220.37 912.77 220.37C914.63 220.37 916.13 220.93 917.28 222.05Z" fill="white"/>
<path d="M936.43 229.22H924.24C924.33 230.72 924.85 231.9 925.79 232.74C926.73 233.59 927.86 234.01 929.2 234.01C930.29 234.01 931.21 233.75 931.94 233.24C932.67 232.73 933.19 232.05 933.48 231.19H936.21C935.8 232.66 934.99 233.85 933.76 234.77C932.54 235.69 931.01 236.15 929.2 236.15C927.75 236.15 926.46 235.83 925.32 235.17C924.18 234.52 923.28 233.6 922.64 232.4C921.99 231.2 921.66 229.82 921.66 228.24C921.66 226.66 921.98 225.28 922.61 224.09C923.24 222.9 924.13 221.99 925.27 221.35C926.41 220.71 927.72 220.39 929.21 220.39C930.7 220.39 931.94 220.71 933.05 221.34C934.16 221.97 935.02 222.84 935.62 223.94C936.22 225.04 936.52 226.29 936.52 227.68C936.52 228.16 936.49 228.67 936.44 229.21L936.43 229.22ZM933.26 224.67C932.83 223.97 932.25 223.44 931.52 223.08C930.79 222.72 929.98 222.54 929.09 222.54C927.81 222.54 926.72 222.95 925.82 223.76C924.92 224.57 924.41 225.71 924.27 227.16H933.9C933.9 226.2 933.69 225.37 933.26 224.67Z" fill="white"/>
<path d="M943.73 221.1C944.56 220.62 945.56 220.38 946.75 220.38V223H946.08C943.24 223 941.82 224.54 941.82 227.62V235.92H939.29V220.67H941.82V223.15C942.27 222.28 942.9 221.6 943.73 221.12V221.1Z" fill="white"/>
</svg>
